<svg width="17" height="17" viewBox="0 0 17 17" fill="none" xmlns="http://www.w3.org/2000/svg">
<path d="M15.1111 0H1.88889C0.85 0 0 0.85 0 1.88889V8.5C0 9.53889 0.85 10.3889 1.88889 10.3889H15.1111C16.15 10.3889 17 9.53889 17 8.5V1.88889C17 0.85 16.15 0 15.1111 0ZM15.1111 5.66667H11.3333C11.3333 7.19667 10.03 8.5 8.5 8.5C6.97 8.5 5.66667 7.19667 5.66667 5.66667H1.88889V1.88889H15.1111V5.66667ZM11.3333 12.2778H17V15.1111C17 16.15 16.15 17 15.1111 17H1.88889C0.85 17 0 16.15 0 15.1111V12.2778H5.66667C5.66667 13.8456 6.93222 15.1111 8.5 15.1111C10.0678 15.1111 11.3333 13.8456 11.3333 12.2778Z" fill="white"/>
</svg>
